<?xml version="1.0" encoding="UTF-8"?>
<!--
  brain — README banner. Mono-color (currentColor); 1200×300.
  Mark on the left, name + tagline on the right.
-->
<svg xmlns="http://www.w3.org/2000/svg" viewBox="0 0 1200 300" width="1200" height="300" role="img" aria-label="brain — a cognitive substrate for AI agents">
  <title>brain — a cognitive substrate for AI agents</title>

  <!-- Mark, scaled to 240×240 and offset so its centre lands at (150,150) -->
  <g transform="translate(30, 30) scale(0.8)">
    <g fill="none" stroke="currentColor" stroke-width="3" stroke-linecap="round" opacity="0.75">
      <line x1="150" y1="150" x2="150" y2="50"/>
      <line x1="150" y1="150" x2="237" y2="100"/>
      <line x1="150" y1="150" x2="237" y2="200"/>
      <line x1="150" y1="150" x2="150" y2="250"/>
      <line x1="150" y1="150" x2="63"  y2="200"/>
      <line x1="150" y1="150" x2="63"  y2="100"/>
      <line x1="150" y1="50"  x2="237" y2="100"/>
      <line x1="237" y1="100" x2="237" y2="200"/>
      <line x1="237" y1="200" x2="150" y2="250"/>
      <line x1="150" y1="250" x2="63"  y2="200"/>
      <line x1="63"  y1="200" x2="63"  y2="100"/>
      <line x1="63"  y1="100" x2="150" y2="50"/>
    </g>
    <g fill="currentColor">
      <circle cx="150" cy="50"  r="14"/>
      <circle cx="237" cy="100" r="14"/>
      <circle cx="237" cy="200" r="14"/>
      <circle cx="150" cy="250" r="14"/>
      <circle cx="63"  cy="200" r="14"/>
      <circle cx="63"  cy="100" r="14"/>
    </g>
    <circle cx="150" cy="150" r="26" fill="currentColor"/>
    <circle cx="150" cy="150" r="10" fill="white"/>
  </g>

  <!-- Wordmark + tagline. Inline font-family stack so this renders cleanly
       on GitHub regardless of installed fonts. -->
  <g font-family="ui-sans-serif, -apple-system, BlinkMacSystemFont, 'Segoe UI', Inter, system-ui, sans-serif" fill="currentColor">
    <text x="290" y="170" font-size="120" font-weight="700" letter-spacing="-4">brain</text>
    <text x="294" y="222" font-size="32" font-weight="400" opacity="0.75">a cognitive substrate for AI agents</text>
    <text x="294" y="262" font-size="22" font-weight="400" opacity="0.5" font-style="italic">memory · recall · plan · reason · forget</text>
  </g>
</svg>
